<svg width="90" height="81" viewBox="0 0 90 81" fill="none" xmlns="http://www.w3.org/2000/svg">
<ellipse cx="45" cy="40.5" rx="38" ry="36.5" fill="#FF5252"/>
<g clip-path="url(#clip0_14_111)">
<path d="M38.5 54.5C28.5 57.5 28.5 49.5 24.5 48.5M52.5 60.5V52.76C52.575 51.8063 52.4462 50.8476 52.122 49.9476C51.7979 49.0476 51.2859 48.2268 50.62 47.54C56.9 46.84 63.5 44.46 63.5 33.54C63.4995 30.7477 62.4254 28.0624 60.5 26.04C61.4117 23.597 61.3472 20.8967 60.32 18.5C60.32 18.5 57.96 17.8 52.5 21.46C47.916 20.2176 43.084 20.2176 38.5 21.46C33.04 17.8 30.68 18.5 30.68 18.5C29.6528 20.8967 29.5883 23.597 30.5 26.04C28.5603 28.0774 27.485 30.7869 27.5 33.6C27.5 44.44 34.1 46.82 40.38 47.6C39.722 48.2799 39.2145 49.0908 38.8906 49.9798C38.5667 50.8689 38.4336 51.8161 38.5 52.76V60.5" stroke="#670000" stroke-width="4" stroke-linecap="round" stroke-linejoin="round"/>
</g>
<mask id="mask0_14_111" style="mask-type:alpha" maskUnits="userSpaceOnUse" x="20" y="16" width="49" height="49">
<g clip-path="url(#clip1_14_111)">
<path d="M38.5 54.5C28.5 57.5 28.5 49.5 24.5 48.5M52.5 60.5V52.76C52.575 51.8063 52.4462 50.8476 52.122 49.9476C51.7979 49.0476 51.2859 48.2268 50.62 47.54C56.9 46.84 63.5 44.46 63.5 33.54C63.4995 30.7477 62.4254 28.0624 60.5 26.04C61.4117 23.597 61.3472 20.8967 60.32 18.5C60.32 18.5 57.96 17.8 52.5 21.46C47.916 20.2176 43.084 20.2176 38.5 21.46C33.04 17.8 30.68 18.5 30.68 18.5C29.6528 20.8967 29.5883 23.597 30.5 26.04C28.5603 28.0774 27.485 30.7869 27.5 33.6C27.5 44.44 34.1 46.82 40.38 47.6C39.722 48.2799 39.2145 49.0908 38.8906 49.9798C38.5667 50.8689 38.4336 51.8161 38.5 52.76V60.5" stroke="#1E1E1E" stroke-width="4" stroke-linecap="round" stroke-linejoin="round"/>
</g>
</mask>
<g mask="url(#mask0_14_111)">
<path d="M32.5 51.5L31 60.5L53.5 68L45 54.5H63.5L52.5 38.5L70.5 40L65 24L57 28L48 14.5L39.5 25.5L23 14L21 24.5L36 32.5L19 40.5L29 44.5L42.5 40.5V52.5L32.5 51.5Z" stroke="#3AAD36" stroke-width="3"/>
</g>
<defs>
<clipPath id="clip0_14_111">
<rect width="48" height="48" fill="white" transform="translate(20.5 16.5)"/>
</clipPath>
<clipPath id="clip1_14_111">
<rect width="48" height="48" fill="white" transform="translate(20.5 16.5)"/>
</clipPath>
</defs>
</svg>
